<?xml version="1.0" encoding="UTF-8"?>
<svg id="Layer_1" data-name="Layer 1" xmlns="http://www.w3.org/2000/svg" viewBox="0 0 740.66 880.86">
  <defs>
    <style>
      .cls-1 {
        fill: #a5b1cc;
      }

      .cls-2 {
        fill: #041a3d;
      }

      .cls-3 {
        fill: #a3b3ce;
      }

      .cls-4 {
        fill: #1977d4;
      }

      .cls-5 {
        fill: #a4b3ce;
      }

      .cls-6 {
        fill: #a3b3cf;
      }

      .cls-7 {
        fill: #031941;
      }

      .cls-8 {
        fill: #02193f;
      }

      .cls-9 {
        fill: #03193e;
      }

      .cls-10 {
        fill: #90a4cb;
      }

      .cls-11 {
        fill: #fefefe;
      }

      .cls-12 {
        fill: #d24561;
      }

      .cls-13 {
        fill: #fdfefe;
      }

      .cls-14 {
        fill: #fdfdfd;
      }
    </style>
  </defs>
  <path class="cls-9" d="M611.23,22.93c33.55,33.59,18.39,87.09,22.18,129.61,33.52,10.8,58.58,40.98,62.96,76.06l-.05,184.08c.6,3.18,12.43,8.94,16.14,12.07,33.75,28.43,35.52,83.24,3.38,113.56-3.94,3.71-18.91,12.16-19.52,15.4v208.2c-4.85,60.44-51.96,110.99-112.18,118.88l-484.95.07c-55.73-6.17-92.89-57.44-97.39-110.81V165.47c11.57-62.12,39.54-101.43,104.35-110.58C258.75,33.35,413.46,20.98,566.33,2.69c16.6,2.96,32.76,8.09,44.9,20.24Z"/>
  <path class="cls-11" d="M141.55,780.07V125.89h417.09c20.51,0,44.43,21.13,44.98,42.34l.09,267.35c-19.65,31.87-18.51,63.24-.03,95.28-4.04,67.19,5.27,140.47.02,206.95-1.63,20.58-15.8,37.27-35.96,41.95-138.48,3.87-277.48.5-416.16,1.72l-10.02-1.41Z"/>
  <path class="cls-10" d="M564.01,813.65c44.37-4.49,76.89-43.44,70.46-87.93,4.12-53.74-5.26-115.2,0-168.03.75-7.51,8.46-2.14,14.57-1,4.93.92,10.01,1.84,15.06,1.73l-.15,207.4c-6.59,37.81-35.35,70.76-72.61,80.53-161.8,5.2-324.6.7-486.77,2.28-21.21-1.53-43.2-15.3-51.67-34.97h511.11Z"/>
  <path class="cls-11" d="M599.61,108.43c-4.67-2.44-10.06-6.73-14.78-8.73-4.11-1.75-18.36-6.05-22.16-6.05H81.11c-.32-1.86,2.38-2.04,3.7-2.33,15.83-3.45,36.95-4.85,53.55-6.91,141.62-17.51,283.82-32.71,425.51-48.38,15.17.33,35.74,19.07,35.74,34.11v38.28Z"/>
  <path class="cls-11" d="M109.32,330.07c.59,57.04.59,113.9,0,170.6-18.17,1.14-39.14,1.14-57.76,0l-2.69-.93v-168.04l2.69-1.63c19.23-.14,38.53.1,57.76,0Z"/>
  <path class="cls-11" d="M51.55,135.3c7.8-5.11,20.91-9.4,30.22-9.4h28.88v169.25c-19.23-.14-38.53.19-57.76,0-1.04,0-2.65-.25-2.69-.9-.34-6.42-1.33-50.32,0-52.59l2.69-1.58c2.57-.36,5.24.89,8,3.76,44.53,13.78,38.94-57.36-3.51-33.98l-3.14-.67c-3.27-.82-5.07-4.25-5.41-10.28l.03-58.97,2.69-4.62Z"/>
  <path class="cls-13" d="M52.9,535.59c19.23-.15,38.53.11,57.76,0v141.04c-19.68-.16-39.43.21-59.1,0-1.04-.03-2.62-.3-2.66-.97-.77-12.02-.41-38.25,1.28-49.9l2.73-1.51,3.17-.42c48.45,27,46.97-56.67-.23-29.39l-2.93-1.08c-1.04,0-2.66-.26-2.69-.9-.82-17.17-.81-38.1,0-55.28l2.69-1.58Z"/>
  <path class="cls-14" d="M634.53,190.37c.86-1,7.51,4.43,8.7,5.41,11.22,9.26,18.72,22.6,20.69,37.07l.02,173.65c-9.02-.19-18.8,5.04-26.63,6.33-1.46.24-2.78-.91-2.78-1.48v-220.97Z"/>
  <path class="cls-11" d="M659.76,440.6c55.53-5.35,62.16,77.83,11.57,84.1-61.18,7.59-64.65-78.99-11.57-84.1Z"/>
  <path class="cls-11" d="M51.55,711.56c19.68-.22,39.43.16,59.1,0v67.84c0,1.47-3.28,1.92-4.63,2.08-17.14,2.01-37.33-.72-54.47-1.41l-2.69-1.23v-65.68l2.69-1.6Z"/>
  <path class="cls-6" d="M51.55,330.07v170.6h57.76v-170.6l1.35,171.95H34.1s-1.35-171.94-1.35-171.94c6.25-.05,12.55.04,18.8,0Z"/>
  <path class="cls-5" d="M54.24,209.18l.9,3.11c-5.06,7.29-5.11,17.1-.96,24.82l-1.29,2.96v55.07c-6.25-.06-12.56.04-18.81,0v-135c0-7.64,11.08-20.66,17.46-24.85l-.05,63.85,2.73,10.03Z"/>
  <path class="cls-3" d="M52.9,535.59v57.76l1.87,2.35c-4.56,7.95-4.43,17.79-.37,25.97l-1.5,2.58-1.34,52.39c-5.8-.06-11.66.04-17.47,0l-1.36-140.28c.21-1.39,17.53-.75,20.17-.77Z"/>
  <path class="cls-1" d="M51.55,711.56v68.51c-5.67-.23-12.26-.74-17.46,1.34v-69.85c5.8-.05,11.66.06,17.46,0Z"/>
  <path class="cls-12" d="M532.45,434.85c-.11,1.06-.5,2.66-1.24,2.69-31.06.91-63.71.47-94.46-1.22-9.36-81.99-125.82-84.05-137.84-2.89-.22,2.76-1.92,3.38-4.16,4.11l-88.93-1.3c.82,4.27-.22,8.33-2.47,12.05-2.21-2.15-1.6-7.27-1.39-10.14,5.43-75.4,50.65-135.48,124.98-154.41,100.15-25.5,203.08,46.44,205.52,151.11Z"/>
  <path class="cls-4" d="M203.34,452.31c.13-1.06.55-2.66,1.29-2.67,30.67-.26,62.37.61,92.85,2.59,17.53,78.66,123.96,78.93,139.36-1.18l2.96-1.29,87.25-.08c2.56.39,3.92,2.61,4.06,6.66-11.29,107.42-120.86,172.88-222,135.36-57.52-21.34-102.63-76.91-105.76-139.39Z"/>
  <path class="cls-8" d="M203.34,448.28c-.04-4.91.02-9.86.01-14.78l92.68,1.35c9.64-84.77,133.4-85.76,142.38,0h94.03c.18,7.77-.55,13.92-1.34,21.49l-3.2-3.98-89.35.09c-14.22,81.74-126,81.9-142.7,1.38l-92.51-1.52c-.07-1.33.01-2.69,0-4.03Z"/>
  <path class="cls-7" d="M52.9,240.07c-6.09-8.59-5.96-23.02,1.34-30.9,10.59-11.42,32.63-8.58,38.6,6.4,11.07,27.78-25.74,44.55-39.95,24.5Z"/>
  <path class="cls-2" d="M52.9,624.25c-3.84-5-5-15.77-3.73-21.86.14-.69,3.44-8.64,3.73-9.03.58-.77,6.45-4.47,7.74-5.03,25.61-11.15,45.09,18.43,27.78,37.19-8.79,9.52-27.66,8.97-35.52-1.26Z"/>
  <path class="cls-11" d="M362.9,402.99c52.84-5.91,59.96,72.84,11.57,78.72-57.44,6.97-61.95-73.08-11.57-78.72Z"/>
</svg>